<?xml version="1.0" encoding="iso-8859-1"?>
<svg version="1.1" xmlns="http://www.w3.org/2000/svg" x="0px" y="0px"
	 viewBox="0 0 466.971 466.971" style="enable-background:new 0 0 466.971 466.971;" xml:space="preserve">
<g>
	<path d="M398.585,68.386C354.485,24.287,295.852,0,233.485,0s-121,24.287-165.099,68.386S0,171.119,0,233.486
		s24.287,121,68.386,165.099s102.733,68.386,165.099,68.386s121-24.287,165.1-68.386c44.1-44.1,68.386-102.733,68.386-165.099
		S442.685,112.486,398.585,68.386z M101.619,412.731c13.083-22.647,31.92-41.644,54.304-54.944
		c17.958,30.078,46.59,47.87,77.56,47.87c30.939,0,59.554-17.761,77.518-47.787c22.381,13.309,41.217,32.287,54.306,54.893
		c-37.977,28.048-83.733,43.207-131.822,43.207C185.378,455.971,139.605,440.801,101.619,412.731z M113.308,234.306
		c0.416,11.911,2.023,23.456,4.681,34.464c-3.148-0.375-6.156-1.565-8.744-3.538c-3.822-2.913-6.281-7.139-6.924-11.902
		C101.205,245.062,105.932,237.346,113.308,234.306z M361.86,240.019c2.913,3.822,4.163,8.55,3.519,13.312
		c-0.643,4.763-3.102,8.989-6.924,11.902c-2.793,2.129-6.074,3.359-9.494,3.621c2.693-11.124,4.31-22.796,4.711-34.842
		C356.898,235.173,359.732,237.227,361.86,240.019z M312.865,219.396L312.865,219.396c-4.314-1.258-18.325-2.845-23.202-2.935
		c-4.297-0.08-8.283-0.044-11.998,0.101c-28.878-8.785-59.339-8.796-88.222-0.039c-3.755-0.152-7.785-0.193-12.135-0.113
		c-4.813,0.088-18.8,1.701-23.201,2.985h-0.001c-4.804,1.403-11.793,4.693-16.505,12.326l-13.062-14.1
		c2.007-30.228,12.806-55.313,31.548-72.986c19.442-18.335,46.206-28.026,77.398-28.026s57.957,9.691,77.398,28.026
		c18.786,17.716,29.594,42.879,31.563,73.205l-12.989,14.021C324.746,224.128,317.699,220.807,312.865,219.396z M233.861,242.489
		h-0.75c-1.054-7.375-5.125-14.148-11.46-18.352c-1.238-0.822-2.607-1.568-4.085-2.255c10.591-1.214,21.264-1.217,31.855-0.002
		c-1.485,0.688-2.86,1.434-4.1,2.257C238.986,228.341,234.915,235.114,233.861,242.489z M152.064,281.727
		c-6.149-7.902-9.288-19.781-8.445-32.433c0.694-10.405,5.259-16.912,13.569-19.339c2.503-0.73,12.48-2.037,18.058-2.433
		L152.064,281.727z M187.24,227.452c2.135,0.065,4.174,0.166,6.107,0.307l-27.119,63.421c-1.887-0.457-3.683-1.127-5.386-2.006
		L187.24,227.452z M204.667,229.265c4.655,0.975,8.308,2.318,10.901,4.039c5.294,3.512,7.877,10.147,6.429,16.51
		c-4.97,21.834-26.039,38.667-43.923,41.642L204.667,229.265z M251.403,233.303c5.889-3.908,17.284-5.883,33.903-5.883
		c0.305,0,0.63,0.007,0.938,0.009l-22.213,51.94c-9.015-7.476-16.378-17.785-19.057-29.555
		C243.525,243.451,246.109,236.816,251.403,233.303z M297.903,228.142c1.72,0.192,3.473,0.409,5.103,0.632l-25.314,59.192
		c-1.482-0.667-2.957-1.417-4.418-2.236L297.903,228.142z M313.764,231.595c5.79,3.171,9.015,9.1,9.588,17.699
		c0.92,13.801-2.887,26.697-10.185,34.497c-5.049,5.397-11.381,8.133-18.821,8.133c-1.981,0-4.035-0.212-6.127-0.599
		L313.764,231.595z M133.299,243.263c-0.306,1.655-0.53,3.418-0.655,5.299c-1.136,17.033,3.649,32.612,13.127,42.744
		c7.11,7.601,16.396,11.618,26.854,11.618c22.651,0,52.442-20.241,59.784-49.436h2.153c7.342,29.194,37.134,49.436,59.784,49.436
		c10.458,0,19.744-4.018,26.854-11.618c9.479-10.131,14.263-25.711,13.127-42.744c-0.12-1.807-0.334-3.502-0.622-5.1l8.969-9.682
		c-2.432,71.468-50.474,128.69-109.189,128.69c-58.782,0-106.866-57.353-109.197-128.935L133.299,243.263z M233.485,373.471
		c23.645,0,45.716-8.293,64.334-22.59c1.184,0.554,2.358,1.125,3.526,1.709c-15.968,26.444-40.99,42.067-67.862,42.067
		c-26.9,0-51.937-15.651-67.901-42.143c1.156-0.577,2.318-1.145,3.49-1.693C187.706,365.156,209.807,373.471,233.485,373.471z
		 M390.807,390.806c-5.359,5.359-10.947,10.407-16.735,15.144c-15.868-26.824-39.325-48.774-67.103-62.839
		c17.36-16.236,30.956-38.073,38.922-63.25c0.574,0.034,1.148,0.058,1.72,0.058c6.306,0,12.409-2.049,17.511-5.937
		c6.159-4.693,10.122-11.504,11.159-19.178s-0.978-15.292-5.671-21.451c-4.228-5.549-10.178-9.307-16.926-10.757
		c-1.129-35.577-13.253-65.216-35.253-85.963c-21.521-20.295-50.895-31.023-84.945-31.023s-63.424,10.728-84.945,31.023
		c-22.034,20.778-34.162,50.476-35.259,86.125c-6.445,1.559-12.116,5.247-16.191,10.594c-4.694,6.159-6.708,13.777-5.671,21.451
		c1.037,7.674,5,14.485,11.159,19.178c5.102,3.888,11.204,5.938,17.511,5.937c0.332,0,0.665-0.022,0.998-0.034
		c7.956,25.134,21.524,46.937,38.845,63.161c-27.771,14.048-51.22,36.008-67.077,62.868c-5.773-4.726-11.345-9.762-16.69-15.108
		C34.143,348.784,11,292.913,11,233.486c0-59.428,23.143-115.299,65.165-157.321S174.058,11,233.485,11
		c59.428,0,115.299,23.143,157.321,65.165s65.165,97.893,65.165,157.321C455.971,292.913,432.829,348.784,390.807,390.806z"/>
	<path d="M233.481,327.553c8.56,0,16.472-2.355,21.163-6.301c2.325-1.955,2.625-5.425,0.669-7.75
		c-1.955-2.324-5.424-2.625-7.75-0.669c-2.04,1.716-6.953,3.72-14.083,3.72c-7.124,0-12.035-2.004-14.075-3.72
		c-2.325-1.955-5.795-1.656-7.75,0.669c-1.955,2.325-1.655,5.794,0.669,7.75C217.018,325.198,224.926,327.553,233.481,327.553z"/>
	<path d="M232.989,333.989c-3.038,0-5.5,2.462-5.5,5.5v4c0,3.038,2.462,5.5,5.5,5.5s5.5-2.462,5.5-5.5v-4
		C238.489,336.451,236.026,333.989,232.989,333.989z"/>
</g>
</svg>
