<?xml version="1.0" encoding="iso-8859-1"?>
<svg version="1.1" xmlns="http://www.w3.org/2000/svg" x="0px" y="0px"
	 viewBox="0 0 218.143 218.143" style="enable-background:new 0 0 218.143 218.143;" xml:space="preserve">
<path d="M109.071,185.638c-17.396,0-34.424-5.995-47.947-16.881c-12.386-9.97-21.428-23.664-25.727-38.857
	c-3.523,1.974-7.46,3.004-11.564,3.004C10.691,132.904,0,122.213,0,109.071C0,95.93,10.691,85.239,23.833,85.239
	c4.104,0,8.041,1.03,11.564,3.004c4.299-15.193,13.341-28.887,25.727-38.857c3.623-2.916,7.496-5.48,11.562-7.673
	c0.155-0.109,0.326-0.202,0.51-0.275c0.007-0.003,0.013-0.005,0.02-0.008c10.979-5.812,23.322-8.924,35.856-8.924
	c17.396,0,34.424,5.995,47.948,16.881c12.385,9.97,21.427,23.664,25.726,38.856c3.522-1.974,7.46-3.003,11.564-3.003
	c13.142,0,23.833,10.691,23.833,23.833c0,13.142-10.691,23.833-23.833,23.833c-4.104,0-8.041-1.03-11.564-3.004
	c-4.299,15.193-13.341,28.887-25.726,38.857C143.495,179.643,126.467,185.638,109.071,185.638z M36.942,123.376
	c0.28,0,0.562,0.047,0.833,0.143c0.805,0.284,1.409,0.96,1.603,1.792c7.562,32.576,36.221,55.327,69.693,55.327
	c33.474,0,62.133-22.751,69.693-55.327c0.193-0.832,0.798-1.507,1.603-1.792c0.805-0.284,1.7-0.139,2.372,0.387
	c3.348,2.615,7.349,3.998,11.57,3.998c10.385,0,18.833-8.448,18.833-18.833c0-10.384-8.448-18.833-18.833-18.833
	c-4.223,0-8.224,1.382-11.57,3.998c-0.673,0.526-1.568,0.672-2.372,0.387c-0.805-0.284-1.409-0.96-1.603-1.792
	c-3.18-13.701-10.093-25.666-19.526-34.929c-2.713,0.531-18.305,3.097-36.069-3.823c-15.43-6.012-22.713-13.047-25.097-15.744
	c-3.12,0.476-6.181,1.153-9.162,2.018c2.264,3.067,7.63,9.103,18.307,15.372c15.348,9.011,30.299,8.24,30.445,8.23
	c1.383-0.088,2.563,0.969,2.644,2.347c0.082,1.378-0.969,2.562-2.347,2.644c-0.672,0.038-16.63,0.864-33.273-8.91
	c-12.946-7.602-18.719-14.967-20.734-18.045c-2.207,0.82-4.364,1.746-6.465,2.772c1.907,3.15,6.753,9.753,17.152,17.055
	c14.503,10.182,29.532,10.667,29.682,10.67c1.379,0.034,2.472,1.179,2.439,2.558c-0.031,1.379-1.139,2.484-2.552,2.441
	c-0.672-0.015-16.643-0.485-32.442-11.578C80.479,57.988,75.21,50.754,73.063,47.124C56.448,56.75,43.989,72.963,39.378,92.832
	c-0.193,0.832-0.798,1.507-1.603,1.792c-0.803,0.285-1.699,0.14-2.372-0.387c-3.348-2.615-7.349-3.998-11.57-3.998
	C13.448,90.239,5,98.687,5,109.071c0,10.385,8.448,18.833,18.833,18.833c4.222,0,8.223-1.382,11.57-3.998
	C35.849,123.558,36.393,123.376,36.942,123.376z M104.502,37.647c3.454,3.033,9.888,7.646,20.481,11.774
	c12.255,4.774,23.516,4.649,29.364,4.104c-12.404-10.109-28.215-16.02-45.276-16.02C107.537,37.505,106.015,37.552,104.502,37.647z
	 M109.071,169.938c-18.893,0-35.444-9.255-44.423-23.023c-0.12-0.147-0.225-0.308-0.31-0.48c-4.34-6.84-6.824-14.767-6.824-23.207
	c0-1.381,1.119-2.5,2.5-2.5h98.114c1.381,0,2.5,1.119,2.5,2.5c0,8.443-2.485,16.371-6.828,23.213
	c-0.084,0.168-0.186,0.325-0.303,0.469C144.521,160.681,127.967,169.938,109.071,169.938z M71.499,147.832
	c8.479,10.363,22.164,17.105,37.572,17.105c15.409,0,29.095-6.742,37.573-17.105H71.499z M67.985,142.832h82.173
	c3.076-5.155,4.98-10.953,5.388-17.105H62.598C63.005,131.879,64.909,137.677,67.985,142.832z M186.675,118.811
	c-0.342,0-0.688-0.07-1.02-0.218c-1.261-0.564-1.825-2.043-1.262-3.303l0.998-2.231c0.75-1.676,0.507-3.611-0.634-5.05l-1.04-1.312
	c-0.519-0.653-0.678-1.523-0.423-2.317c1.212-3.775,5.911-10.484,14.987-8.864c9.042,1.614,11.297,9.602,11.227,13.6
	c-0.024,1.365-1.139,2.456-2.499,2.456c-0.016,0-0.03,0-0.045,0c-1.377-0.024-2.474-1.156-2.456-2.531
	c0.004-0.758-0.163-7.362-7.105-8.602c-5.325-0.952-7.867,2.441-8.846,4.316l0.117,0.148c2.305,2.906,2.795,6.814,1.281,10.199
	l-0.998,2.231C188.542,118.26,187.63,118.811,186.675,118.811z M32.6,118.811c-0.955,0-1.867-0.551-2.283-1.479l-0.998-2.231
	c-1.515-3.385-1.023-7.293,1.281-10.199l0.117-0.147c-0.988-1.899-3.532-5.263-8.846-4.316c-6.948,1.241-7.11,7.854-7.105,8.604
	c0.008,1.375-1.096,2.506-2.471,2.522c-1.355,0.034-2.504-1.074-2.529-2.448c-0.07-3.998,2.185-11.985,11.227-13.6
	c9.081-1.625,13.775,5.088,14.987,8.864c0.255,0.794,0.097,1.663-0.422,2.317l-1.04,1.312c-1.142,1.439-1.385,3.374-0.635,5.05
	l0.998,2.231c0.563,1.26-0.001,2.739-1.262,3.303C33.288,118.74,32.941,118.811,32.6,118.811z M147.081,104.893
	c-1.074,0-2.065-0.698-2.393-1.777c-0.096-0.313-2.389-7.473-9.606-7.473c-7.068,0-8.741,6.994-8.81,7.292
	c-0.305,1.341-1.639,2.193-2.98,1.892c-1.343-0.298-2.194-1.618-1.903-2.962c0.839-3.881,4.781-11.222,13.693-11.222
	c8.792,0,13.262,7.22,14.396,11.038c0.394,1.323-0.36,2.715-1.684,3.109C147.557,104.859,147.316,104.893,147.081,104.893z
	 M94.308,104.893c-1.147,0-2.18-0.795-2.438-1.959c-0.068-0.3-1.742-7.291-8.81-7.291c-7.222,0-9.513,7.168-9.607,7.474
	c-0.404,1.314-1.793,2.065-3.115,1.663c-1.316-0.398-2.065-1.78-1.674-3.099c1.135-3.818,5.604-11.038,14.396-11.038
	c8.912,0,12.854,7.34,13.693,11.222c0.292,1.35-0.565,2.68-1.915,2.972C94.661,104.874,94.483,104.893,94.308,104.893z"/>
</svg>
