<?xml version="1.0" encoding="iso-8859-1"?>
<svg version="1.1" xmlns="http://www.w3.org/2000/svg" x="0px" y="0px"
	 viewBox="0 0 64 64" style="enable-background:new 0 0 64 64;" xml:space="preserve">
<g>
			<rect x="17.756" y="25.999" transform="matrix(0.7071 -0.7071 0.7071 0.7071 -12.6478 23.4635)" width="8.485" height="2"/>
			<rect x="14.963" y="23.5" transform="matrix(0.7071 -0.7071 0.7071 0.7071 -11.9059 20.2566)" width="7.071" height="2"/>
</g>
<g>
			<rect x="37.963" y="23.5" transform="matrix(0.7071 -0.7071 0.7071 0.7071 -5.1693 36.5201)" width="7.071" height="2"/>
			<rect x="40.756" y="25.999" transform="matrix(0.7071 -0.7071 0.7071 0.7071 -5.9113 39.7269)" width="8.485" height="2"/>
</g>
<g>
		<path d="M36,36.948h-8c-3.309,0-6,2.691-6,6c0,0.553,0.448,1,1,1h18c0.552,0,1-0.447,1-1C42,39.64,39.309,36.948,36,36.948z
			 M27,41.948h-2.874c0.362-1,1.472-2.443,2.874-2.807V41.948z M31,41.948h-2v-3h2V41.948z M35,41.948h-2v-3h2V41.948z M37,41.948
			v-2.807c1.401,0.364,2.511,1.807,2.873,2.807H37z"/>
</g>
<g>
		<rect x="27" y="46" width="2" height="2"/>
</g>
<g>
		<rect x="31" y="46" width="2" height="2"/>
</g>
<g>
		<rect x="35" y="46" width="2" height="2"/>
</g>
<g>
		<path d="M63.823,62.435c-3.494-5.061-8.748-9.424-14.89-12.444C53.296,45.643,56,39.631,56,33v-4c0-2.549-0.403-5.004-1.143-7.311
			l1.59-0.795C56.786,20.725,57,20.378,57,20v-2.279l2.316-0.773C59.725,16.813,60,16.431,60,16v-2.28l2.316-0.773l-0.632-1.896
			l-3,1C58.275,12.188,58,12.569,58,13v2.279l-2.316,0.773C55.275,16.188,55,16.569,55,17v2.382L54.164,19.8
			c-0.64-1.536-1.435-2.99-2.365-4.346l1.518-0.506C53.725,14.813,54,14.431,54,14v-2.28l2.316-0.773C56.725,10.813,57,10.431,57,10
			V7.721l2.316-0.773C59.725,6.813,60,6.431,60,6V3.535l2.555-1.703l-1.109-1.664l-3,2C58.167,2.354,58,2.666,58,3v2.279
			l-2.316,0.773C55.275,6.188,55,6.57,55,7v2.279l-2.316,0.773C52.275,10.188,52,10.569,52,11v2.279l-1.467,0.489
			c-1.029-1.25-2.184-2.392-3.442-3.412l1.225-0.409C48.725,9.813,49,9.431,49,9V6.721l2.316-0.773C51.725,5.813,52,5.431,52,5
			V2.721l2.316-0.773l-0.632-1.896l-3,1C50.275,1.188,50,1.57,50,2v2.279l-2.316,0.773C47.275,5.188,47,5.57,47,6v2.279L45.107,8.91
			C41.336,6.442,36.834,5,32,5s-9.336,1.442-13.107,3.911L17,8.28V6c0-0.43-0.275-0.812-0.684-0.948L14,4.28V2
			c0-0.43-0.275-0.812-0.684-0.948l-3-1L9.684,1.948L12,2.721V5c0,0.431,0.275,0.812,0.684,0.948L15,6.721V9
			c0,0.431,0.275,0.812,0.684,0.948l1.225,0.409c-1.258,1.02-2.413,2.162-3.442,3.412L12,13.28V11c0-0.431-0.275-0.812-0.684-0.948
			L9,9.28V7c0-0.43-0.275-0.812-0.684-0.948L6,5.28V3c0-0.334-0.167-0.647-0.445-0.832l-3-2l-1.11,1.664L4,3.535V6
			c0,0.431,0.275,0.812,0.684,0.948L7,7.721V10c0,0.431,0.275,0.812,0.684,0.948L10,11.72V14c0,0.431,0.275,0.812,0.684,0.948
			l1.518,0.506c-0.93,1.356-1.725,2.81-2.365,4.346L9,19.382V17c0-0.43-0.275-0.812-0.684-0.948L6,15.28V13
			c0-0.431-0.275-0.813-0.684-0.949l-3-1l-0.633,1.896L4,13.72V16c0,0.431,0.275,0.812,0.684,0.948L7,17.721V20
			c0,0.379,0.214,0.725,0.553,0.894l1.59,0.795C8.403,23.996,8,26.451,8,29v4c0,6.631,2.704,12.642,7.067,16.99
			c-6.143,3.02-11.396,7.382-14.89,12.442C0.062,62.599,0,62.797,0,63v0.948h2v-0.634c3.438-4.869,8.617-9.046,14.659-11.874
			c3.206,2.672,7.117,4.521,11.409,5.232c0.106,0.622,0.355,1.192,0.714,1.681l-1.71,4.276C27.024,62.746,27,62.872,27,63v0.948h2
			v-0.756l1.41-3.526c0.488,0.212,1.024,0.333,1.59,0.333s1.102-0.121,1.59-0.333L35,63.192v0.756h2V63
			c0-0.127-0.024-0.253-0.071-0.371l-1.71-4.276c0.359-0.489,0.607-1.059,0.714-1.681c4.291-0.711,8.202-2.56,11.409-5.232
			c6.04,2.828,11.22,7.007,14.658,11.877v0.631h2v-0.945C64,62.799,63.938,62.602,63.823,62.435z M32,6.948
			c10.764,0,19.742,8,21.629,18h-1.688c-0.5-4-4.317-8-8.941-8s-8.442,4-8.941,8h-4.118c-0.5-4-4.317-8-8.941-8s-8.442,4-8.941,8
			h-1.688C12.258,14.948,21.235,6.948,32,6.948z M50,26c0,3.859-3.14,7-7,7s-7-3.141-7-7s3.14-7,7-7S50,22.141,50,26z M28,26
			c0,3.859-3.14,7-7,7s-7-3.141-7-7s3.14-7,7-7S28,22.141,28,26z M32,58c-0.766,0-1.425-0.438-1.761-1.072
			C30.821,56.97,31.407,57,32,57s1.178-0.029,1.761-0.072C33.425,57.562,32.766,58,32,58z M32,55c-12.131,0-22-9.869-22-22v-4
			c0-0.675,0.035-1.052,0.095-2.052h1.964c0.499,5,4.317,8,8.941,8s8.441-3,8.941-8h4.118c0.499,5,4.317,8,8.941,8s8.441-3,8.941-8
			h1.964C53.965,27.948,54,28.325,54,29v4C54,45.131,44.131,55,32,55z"/>
</g>
<g>
		<rect x="26" y="13.948" width="12" height="2"/>
</g>
<g>
		<rect x="26" y="9.948" width="12" height="2"/>
</g>
<g>
			<path d="M15,42v2c2.757,0,5-2.052,5-5.052h-2C18,40.948,16.654,42,15,42z"/>
			<path d="M46,38.948h-2c0,3,2.243,5.052,5,5.052v-2C47.346,42,46,40.948,46,38.948z"/>
</g>
</svg>
